<svg height="480pt" viewBox="0 0 480 480.18145" width="480pt" xmlns="http://www.w3.org/2000/svg"><path d="m24.089844 144.179688c.039062 10.425781 6.8125 19.628906 16.753906 22.761718 3.234375 14.664063 16.230469 25.101563 31.246094 25.101563s28.011718-10.4375 31.25-25.101563c7.445312-2.292968 13.292968-8.09375 15.644531-15.519531s.90625-15.535156-3.863281-21.695313c27.101562-20.277343 36.402344-56.703124 22.339844-87.488281-14.066407-30.785156-47.6875-47.605469-80.753907-40.394531-33.070312 7.207031-56.6406248 36.492188-56.6171872 70.335938-.03125 22.695312 10.7226562 44.054687 28.9687502 57.546874-3.203125 4.140626-4.949219 9.21875-4.96875 14.453126zm48 32c-5.691406-.015626-10.941406-3.0625-13.773438-8h27.550782c-2.835938 4.9375-8.085938 7.984374-13.777344 8zm24-24h-48c-4.417969 0-8-3.578126-8-8 0-4.417969 3.582031-8 8-8h48c4.417968 0 8 3.582031 8 8 0 4.421874-3.582032 8-8 8zm-80-80c-.09375-27.222657 19.402344-50.570313 46.207031-55.332032 26.804687-4.761718 53.152344 10.445313 62.4375 36.035156 9.285156 25.59375-1.183594 54.15625-24.804687 67.691407-1.265626-.238281-2.550782-.367188-3.839844-.394531h-48c-1.289063.027343-2.570313.15625-3.839844.394531-17.421875-9.878907-28.179688-28.367188-28.160156-48.394531zm0 0"/><path d="m62.746094 92.621094 9.34375-14.039063 9.34375 14.015625c1.484375 2.226563 3.984375 3.5625 6.65625 3.5625 2.675781 0 5.171875-1.335937 6.65625-3.5625l16-24-13.3125-8.878906-9.34375 14.0625-9.34375-14.039062c-1.570313-2.097657-4.035156-3.335938-6.65625-3.335938-2.617188 0-5.085938 1.238281-6.65625 3.335938l-9.34375 14.039062-9.34375-14.039062-13.3125 8.878906 16 24c1.570312 2.097656 4.039062 3.332031 6.65625 3.332031 2.621094 0 5.085937-1.234375 6.65625-3.332031zm0 0"/><path d="m480.089844 72.179688c.085937-33.90625-23.496094-63.277344-56.621094-70.519532-33.128906-7.242187-66.816406 9.613282-80.886719 40.460938-14.070312 30.851562-4.707031 67.339844 22.476563 87.605468-4.769532 6.160157-6.210938 14.269532-3.859375 21.695313 2.351562 7.425781 8.199219 13.226563 15.644531 15.519531 3.234375 14.664063 16.230469 25.101563 31.246094 25.101563s28.011718-10.4375 31.25-25.101563c7.445312-2.292968 13.292968-8.09375 15.644531-15.519531s.90625-15.535156-3.863281-21.695313c18.25-13.492187 29-34.851562 28.96875-57.546874zm-128 0c-.09375-27.222657 19.402344-50.570313 46.207031-55.332032 26.804687-4.761718 53.152344 10.445313 62.4375 36.035156 9.285156 25.59375-1.183594 54.15625-24.804687 67.691407-1.265626-.238281-2.550782-.367188-3.839844-.394531h-48c-1.289063.027343-2.570313.15625-3.839844.394531-17.421875-9.878907-28.179688-28.367188-28.160156-48.394531zm56 104c-5.691406-.015626-10.941406-3.0625-13.773438-8h27.550782c-2.835938 4.9375-8.085938 7.984374-13.777344 8zm24-24h-48c-4.417969 0-8-3.578126-8-8 0-4.417969 3.582031-8 8-8h48c4.417968 0 8 3.582031 8 8 0 4.421874-3.582032 8-8 8zm0 0"/><path d="m398.746094 92.621094 9.34375-14.039063 9.34375 14.015625c1.484375 2.226563 3.984375 3.5625 6.65625 3.5625 2.675781 0 5.171875-1.335937 6.65625-3.5625l16-24-13.3125-8.878906-9.34375 14.0625-9.34375-14.039062c-1.570313-2.097657-4.035156-3.335938-6.65625-3.335938-2.617188 0-5.085938 1.238281-6.65625 3.335938l-9.34375 14.039062-9.34375-14.039062-13.3125 8.878906 16 24c1.570312 2.097656 4.039062 3.332031 6.65625 3.332031 2.621094 0 5.085937-1.234375 6.65625-3.332031zm0 0"/><path d="m318.835938 382.78125-46.746094-12.710938v-12c15.027344-10.449218 23.992187-27.585937 24-45.890624v-8c4.417968 0 8-3.578126 8-8v-24c0-35.34375-28.652344-64-64-64-35.34375 0-64 28.65625-64 64v24c0 4.421874 3.582031 8 8 8v8c.011718 18.304687 8.976562 35.441406 24 45.890624v12l-46.765625 12.71875c-24.304688 6.730469-41.15625 28.816407-41.234375 54.03125v35.359376c0 4.421874 3.582031 8 8 8h224c4.417968 0 8-3.578126 8-8v-35.359376c-.078125-25.226562-16.941406-47.316406-41.253906-54.039062zm-126.746094-110.601562c0-26.507813 21.492187-48 48-48 26.511718 0 48 21.492187 48 48v16h-5.253906c-7.351563.011718-13.761719-4.988282-15.546876-12.117188l-3.445312-13.816406c-.75-2.996094-3.152344-5.292969-6.175781-5.90625-.519531-.105469-1.046875-.160156-1.578125-.160156-2.515625 0-4.886719 1.1875-6.398438 3.203124l-4.800781 6.398438c-10.605469 14.066406-27.183594 22.355469-44.800781 22.398438h-8zm8 40v-8c19.726562-.039063 38.582031-8.128907 52.199218-22.398438 3.902344 12.355469 14.890626 21.121094 27.800782 22.175781v8.222657c0 22.09375-17.90625 40-40 40-22.089844 0-40-17.90625-40-40zm40 56c5.421875-.015626 10.8125-.824219 16-2.398438v10.398438c.027344 2.292968 1.046875 4.460937 2.792968 5.945312l-18.792968 15.65625-18.792969-15.648438c1.75-1.484374 2.769531-3.65625 2.792969-5.953124v-10.398438c5.1875 1.574219 10.578125 2.382812 16 2.398438zm104 96h-24v-32h-16v32h-128v-32h-16v32h-24v-27.359376c.0625-18.015624 12.101562-33.789062 29.464844-38.597656l37.734374-10.265625 31.683594 26.402344c2.964844 2.46875 7.273438 2.46875 10.238282 0l31.679687-26.402344 37.710937 10.257813c17.371094 4.804687 29.425782 20.582031 29.488282 38.605468zm0 0"/><path d="m120.089844 240.179688c0-2.804688-1.472656-5.40625-3.878906-6.855469l-40-24c-2.535157-1.523438-5.703126-1.523438-8.238282 0l-40 24c-2.410156 1.449219-3.882812 4.050781-3.882812 6.855469v24c0 4.421874 3.582031 8 8 8h16v56c0 4.421874 3.582031 8 8 8h32c4.417968 0 8-3.578126 8-8v-56h16c4.417968 0 8-3.578126 8-8zm-16 16h-16c-4.417969 0-8 3.582031-8 8v56h-16v-56c0-4.417969-3.582032-8-8-8h-16v-11.46875l32-19.203126 32 19.203126zm0 0"/><path d="m452.210938 233.324219-40-24c-2.535157-1.523438-5.703126-1.523438-8.238282 0l-40 24c-2.410156 1.449219-3.882812 4.050781-3.882812 6.855469v24c0 4.421874 3.582031 8 8 8h16v56c0 4.421874 3.582031 8 8 8h32c4.417968 0 8-3.578126 8-8v-56h16c4.417968 0 8-3.578126 8-8v-24c0-2.804688-1.472656-5.40625-3.878906-6.855469zm-12.121094 22.855469h-16c-4.417969 0-8 3.582031-8 8v56h-16v-56c0-4.417969-3.582032-8-8-8h-16v-11.46875l32-19.203126 32 19.203126zm0 0"/><path d="m197.746094 93.835938 18.34375-18.34375 18.34375 18.34375c3.125 3.125 8.1875 3.125 11.3125 0l18.34375-18.34375 18.34375 18.34375c3.125 3.125 8.1875 3.125 11.3125 0l24-24-11.3125-11.308594-18.34375 18.34375-18.34375-18.34375c-3.125-3.125-8.1875-3.125-11.3125 0l-18.34375 18.34375-18.34375-18.34375c-3.125-3.125-8.1875-3.125-11.3125 0l-18.34375 18.34375-18.34375-18.34375-11.3125 11.308594 24 24c3.125 3.125 8.1875 3.125 11.3125 0zm0 0"/><path d="m248.089844 112.179688h16v16h-16zm0 0"/><path d="m280.089844 112.179688h16v16h-16zm0 0"/><path d="m216.089844 112.179688h16v16h-16zm0 0"/><path d="m184.089844 112.179688h16v16h-16zm0 0"/><path d="m48.089844 352.179688h16v16h-16zm0 0"/><path d="m80.089844 352.179688h16v32h-16zm0 0"/><path d="m80.089844 400.179688h16v16h-16zm0 0"/><path d="m416.089844 352.179688h16v16h-16zm0 0"/><path d="m384.089844 352.179688h16v32h-16zm0 0"/><path d="m384.089844 400.179688h16v16h-16zm0 0"/></svg>