<?xml version="1.0" standalone="no"?>
<!DOCTYPE svg PUBLIC "-//W3C//DTD SVG 20010904//EN"
 "http://www.w3.org/TR/2001/REC-SVG-20010904/DTD/svg10.dtd">
<svg version="1.0" xmlns="http://www.w3.org/2000/svg"
 width="600.000000pt" height="600.000000pt" viewBox="0 0 600.000000 600.000000"
 preserveAspectRatio="xMidYMid meet">

<g transform="translate(0.000000,600.000000) scale(0.100000,-0.100000)"
fill="#000000" stroke="none">
<path d="M5720 5161 c-45 -38 -143 -83 -255 -116 -53 -15 -85 -17 -270 -11
-240 8 -281 14 -386 52 -75 28 -79 28 -171 16 -145 -18 -252 -52 -296 -95 -23
-22 -53 -39 -79 -45 -24 -6 -59 -19 -78 -31 -20 -12 -51 -21 -70 -21 -50 0
-137 -21 -165 -40 -14 -10 -34 -20 -45 -23 -29 -9 -221 -38 -280 -42 -27 -2
-84 -7 -126 -11 -66 -6 -87 -3 -155 19 -44 14 -113 32 -154 41 -112 22 -121
27 -193 114 -88 105 -130 124 -277 126 -96 1 -110 -1 -156 -26 -93 -49 -285
-108 -350 -108 -41 0 -69 -6 -91 -20 -29 -17 -36 -18 -70 -6 -96 33 -197 42
-245 21 -25 -10 -42 33 -22 56 16 18 1 39 -27 39 -10 0 -24 8 -31 18 -19 27
-52 42 -90 42 -21 0 -53 12 -81 30 -26 17 -53 30 -61 30 -7 0 -25 -27 -41 -60
-16 -32 -39 -68 -52 -80 -16 -14 -23 -31 -23 -55 0 -20 -9 -53 -20 -75 -34
-67 -27 -113 31 -201 28 -43 49 -84 47 -91 -3 -9 -32 -13 -99 -14 -52 -1 -110
-5 -130 -9 -35 -7 -37 -9 -48 -63 -6 -30 -11 -67 -11 -82 0 -21 -10 -34 -40
-54 -22 -14 -40 -30 -40 -34 0 -5 -13 -7 -30 -4 -26 4 -31 0 -52 -42 l-22 -46
-33 36 c-18 20 -33 44 -33 53 0 27 -21 41 -62 41 -35 0 -38 -2 -48 -42 -50
-195 -82 -281 -113 -307 -15 -12 -14 -16 8 -45 17 -22 31 -64 44 -127 17 -82
18 -110 10 -219 -9 -115 -13 -132 -51 -213 l-41 -88 10 -90 c6 -49 12 -92 15
-94 5 -5 221 -35 251 -35 9 0 25 9 34 20 23 27 28 25 43 -9 9 -23 20 -31 43
-33 42 -4 48 -28 8 -28 -17 0 -31 -4 -31 -9 0 -6 -11 -22 -25 -37 -14 -15 -25
-32 -25 -38 0 -20 23 -36 51 -36 23 0 29 -6 34 -32 8 -37 20 -48 53 -48 26 0
28 -9 7 -36 -21 -28 -18 -47 10 -74 30 -28 31 -40 6 -71 -18 -22 -18 -26 -4
-41 9 -10 11 -18 6 -18 -6 0 -16 -13 -22 -30 -5 -16 -17 -30 -26 -30 -8 0 -32
-11 -53 -24 -20 -13 -58 -27 -84 -31 -42 -5 -48 -9 -48 -30 0 -16 -8 -26 -28
-33 -18 -6 -34 -22 -42 -42 -13 -32 -13 -34 23 -62 53 -42 50 -62 -5 -42 -24
8 -52 14 -63 13 -11 -1 -27 1 -35 4 -8 3 -43 8 -77 11 -48 4 -63 3 -63 -7 0
-7 -13 -26 -28 -43 -41 -43 -92 -122 -92 -144 0 -12 12 -22 35 -30 27 -9 35
-17 35 -36 0 -13 -4 -24 -8 -24 -5 0 -35 -20 -67 -45 -32 -25 -74 -53 -94 -62
-20 -10 -44 -28 -54 -40 -14 -17 -25 -21 -43 -17 -15 4 -31 1 -42 -8 -9 -8
-38 -27 -64 -42 -27 -15 -48 -29 -48 -32 0 -50 -27 -154 -45 -176 -21 -25 -23
-37 -23 -140 l1 -113 -37 -39 c-26 -29 -36 -49 -36 -73 l0 -33 60 30 c93 47
173 37 186 -24 11 -54 51 -120 82 -137 16 -9 70 -63 120 -120 145 -167 174
-183 329 -184 l112 0 133 64 c73 35 151 72 173 82 353 156 436 191 483 204 30
7 58 19 62 24 3 6 80 40 171 75 90 35 229 95 309 133 80 39 177 80 215 93 88
29 209 89 259 129 20 16 54 35 74 42 42 13 543 249 721 339 64 32 131 70 150
84 21 16 68 33 130 47 100 22 409 148 531 217 36 20 81 44 100 53 19 9 44 26
54 37 12 14 37 23 75 28 110 13 114 16 213 221 l89 183 50 257 c32 164 73 434
114 746 35 269 67 493 72 497 4 3 100 33 213 65 113 32 210 61 217 64 7 4 75
92 152 196 l140 190 103 61 c57 33 104 68 106 76 2 13 -9 18 -52 23 l-56 7 0
49 c0 46 -3 51 -35 70 -19 12 -35 25 -35 30 0 24 -58 6 -100 -30z m80 -1 c0
-5 14 -16 30 -25 28 -14 30 -20 30 -69 l0 -54 36 -7 37 -6 -81 -47 c-81 -46
-83 -49 -218 -232 -75 -102 -140 -189 -144 -194 -5 -4 -108 -37 -230 -72 -123
-35 -225 -65 -227 -68 -3 -2 -33 -226 -69 -498 -41 -322 -81 -584 -115 -756
l-51 -263 -85 -175 c-47 -96 -93 -179 -103 -184 -9 -5 -48 -14 -86 -20 -47 -8
-77 -18 -94 -34 -74 -68 -521 -270 -665 -301 -85 -19 -121 -34 -172 -72 -35
-27 -705 -348 -823 -395 -41 -16 -86 -40 -100 -53 -30 -29 -165 -96 -240 -120
-30 -10 -135 -55 -232 -101 -98 -45 -245 -108 -328 -140 -82 -31 -150 -60
-150 -65 0 -4 -26 -15 -57 -24 -67 -19 -508 -212 -668 -293 -109 -54 -111 -55
-205 -56 -148 -1 -175 14 -320 179 -55 63 -109 116 -119 120 -24 7 -58 63 -72
119 -8 34 -18 46 -45 60 -39 18 -125 21 -155 6 -13 -8 -19 -7 -19 0 0 6 8 14
18 17 28 11 33 25 26 91 -4 40 -2 73 6 91 8 21 9 35 1 49 -8 15 -5 26 14 52
15 20 28 59 36 103 7 43 18 77 28 84 31 23 96 52 133 58 24 4 39 12 43 24 3
11 16 22 28 25 12 3 55 31 96 61 41 30 80 55 87 55 10 0 14 14 14 50 0 45 -3
52 -27 62 -16 7 -30 13 -32 15 -7 4 54 93 64 93 6 0 18 14 28 31 16 30 19 31
65 25 26 -4 67 -8 91 -11 24 -2 57 -9 73 -16 22 -9 35 -9 58 1 29 12 29 12 14
44 -9 17 -28 40 -42 52 -31 26 -25 50 17 59 24 5 31 12 31 30 0 20 7 24 43 30
23 4 60 18 83 31 22 13 48 24 57 24 9 0 20 15 27 35 6 19 17 35 25 35 7 0 18
6 24 14 10 11 7 17 -11 30 -17 12 -20 18 -10 28 19 19 14 73 -8 93 -24 22 -25
33 -3 57 14 16 14 22 3 43 -7 14 -24 25 -39 27 -21 2 -28 10 -35 41 -8 32 -13
37 -38 37 -26 0 -27 2 -16 25 9 19 19 25 45 25 32 0 33 2 33 38 0 48 -8 59
-44 64 -24 2 -31 9 -38 36 -7 27 -13 32 -37 32 -19 0 -36 -8 -48 -25 l-18 -24
-110 15 c-60 9 -111 17 -112 18 -2 1 -7 34 -13 73 -10 71 -9 71 30 158 37 80
41 97 51 219 10 121 9 141 -10 236 -12 57 -28 111 -36 120 -19 21 -19 34 -1
49 17 15 50 104 80 221 18 70 26 85 42 85 14 0 20 -8 22 -32 2 -19 9 -33 16
-33 8 0 26 -16 40 -35 38 -49 59 -46 83 13 19 45 23 49 51 44 23 -3 33 1 41
16 6 11 26 30 45 41 30 19 35 28 41 74 12 100 14 104 48 112 18 4 69 7 115 6
109 -3 122 2 122 44 0 24 -15 57 -50 111 -55 85 -60 110 -30 169 11 22 20 54
20 72 0 17 6 36 14 40 7 4 28 36 45 71 17 34 33 62 35 62 2 0 24 -11 47 -25
24 -14 60 -25 79 -25 26 0 45 -10 73 -35 20 -20 37 -41 37 -49 0 -7 5 -27 11
-45 12 -34 31 -39 84 -20 25 10 48 8 121 -8 49 -12 103 -27 121 -34 30 -12 34
-11 57 14 22 24 32 27 93 27 54 0 93 9 194 44 69 24 137 50 150 59 45 29 100
37 191 27 47 -5 100 -16 116 -24 17 -9 59 -50 93 -92 35 -41 76 -82 91 -90 15
-8 72 -23 125 -34 54 -11 124 -30 155 -41 50 -19 71 -21 155 -15 54 3 108 6
121 6 72 0 300 42 332 62 40 23 128 47 180 48 19 0 55 11 79 25 23 14 52 25
63 25 26 0 69 23 93 50 28 31 59 45 140 63 202 45 223 45 324 1 63 -29 224
-43 473 -44 126 0 144 2 220 29 138 48 151 54 208 98 56 44 70 50 70 33z"/>
</g>
</svg>
